<!-- FastUni willis<793207918@qq.com> -->
<svg xmlns="http://www.w3.org/2000/svg" xmlns:xlink="http://www.w3.org/1999/xlink" width="180" height="60" viewBox="0 0 180 60">
  <!-- <rect x="0" y="0" width="180" height="60" fill="#f0f0f0"/> -->

  <defs>
    <linearGradient id="gradient1" x1="0%" y1="0%" x2="100%" y2="100%">
      <stop offset="30%" style="stop-color:#3985ff; stop-opacity:1"/>
      <stop offset="100%" style="stop-color:#ff5733; stop-opacity:1"/> 
    </linearGradient>
  </defs>
  
  <g featurekey="inlineSymbolFeature-0" transform="matrix(0.5,0,0,0.5,2,3)">
    <path d="M50,10L10,90h80L50,10z M50,24.909L72.546,70H42.36l3.333-6.667h16.064L50,39.814L31.575,76.667h44.304l3.333,6.666H20.788  L50,24.909z" fill="url(#gradient1)"/>
  </g>

  <g featurekey="nameRightFeature-0" transform="matrix(1,0,0,1,54,4)" fill="#475569">
    <path d="M1.6 40 l0 -28 l5.04 0 l0 28 l-5.04 0 z M8.32 28.52 l0 -5.04 l4.76 0 l0 5.04 l-4.76 0 z M8.32 17.04 l0 -5.04 l7 0 l0 5.04 l-7 0 z" fill="#3985ff"/>
    <path d="M17.720000000000002 40 l2.28 -11.2 l8.56 0 l-1.72 -8.56 l-1.36 6.88 l-5.16 0 l3.04 -15.12 l6.96 0 l4.4 21.84 l-10.6 0 l-1.24 6.16 l-5.16 0 z M30.840000000000003 40 l-0.92 -4.48 l5.16 0 l0.88 4.48 l-5.12 0 z"/>
    <path d="M42.080000000000005 28.52 l-3.72 -3.72 l0 -9.08 l3.72 -3.72 l3.28 0 l0 5.04 l-1.2 0 l-0.76 0.76 l0 4.92 l0.76 0.76 l6.16 0 l3.72 3.72 l0 1.32 l-11.96 0 z M42.080000000000005 40 l-3.72 -3.72 l0 -5.24 l5.04 0 l0 3.16 l0.76 0.76 l4.08 0 l0.76 -0.76 l0 -4 l5.04 0 l0 6.08 l-3.72 3.72 l-8.24 0 z M49.00000000000001 20.96 l0 -3.16 l-0.76 -0.76 l-1.2 0 l0 -5.04 l3.28 0 l3.72 3.72 l0 5.24 l-5.04 0 z"/>
    <path d="M62.56 40 l0 -21.28 l5.04 0 l0 21.28 l-5.04 0 z M57.24 17.04 l0 -5.04 l15.68 0 l0 5.04 l-15.68 0 z"/>
    <path d="M85.08 40 l0 -5.04 l1.48 0 l0.76 -0.76 l0 -22.2 l5.04 0 l0 24.28 l-3.72 3.72 l-3.56 0 z M79.84 40 l-3.72 -3.72 l0 -24.28 l5.04 0 l0 22.2 l0.76 0.76 l1.48 0 l0 5.04 l-3.56 0 z" fill="#f4765e"/>
    <path d="M106.52 40 l-10.96 -28 l5.44 0 l5.84 14.96 l0 -14.96 l5.04 0 l0 28 l-5.36 0 z M95.64 40 l0 -23.2 l5.04 12.84 l0 10.36 l-5.04 0 z"/>
    <path d="M115.07999999999998 25.16 l0 -13.16 l5.04 0 l0 13.16 l-5.04 0 z M115.07999999999998 40 l0 -13.16 l5.04 0 l0 13.16 l-5.04 0 z"/>
  </g>
</svg>